<svg xmlns="http://www.w3.org/2000/svg" x="0px" y="0px"
    width="100" height="100"
    viewBox="0 0 172 172"
    style="fill:#000000;">
    <g fill="none" fill-rule="nonzero" stroke="none" stroke-width="1" stroke-linecap="butt" stroke-linejoin="miter" stroke-miterlimit="10" stroke-dasharray="" stroke-dashoffset="0" font-family="none" font-weight="none" font-size="none" text-anchor="none" style="mix-blend-mode: normal">
        <path d="M0,172v-172h172v172z" fill="none"></path>
        <g fill="#ffffff">
            <path d="M82.56,34.4v17.2h6.88v-17.2zM68.8,55.04c-1.89469,0 -3.44,1.54531 -3.44,3.44v24.08h41.28v-24.08c0,-1.89469 -1.53187,-3.44 -3.44,-3.44zM30.96,72.24c-1.89469,0 -3.44,1.54531 -3.44,3.44v7.8475c1.02125,-0.59125 2.17688,-0.9675 3.44,-0.9675h24.08v-6.88c0,-1.89469 -1.54531,-3.44 -3.44,-3.44zM10.4275,75.68l-0.86,6.88l14.5125,1.935v-6.9875zM168.13,84.495l-20.21,6.9875v7.2025l22.4675,-7.74zM30.96,86c-1.89469,0 -3.44,1.54531 -3.44,3.44v10.32h116.96v-10.32c0,-1.89469 -1.53187,-3.44 -3.44,-3.44zM3.44,106.64c-0.94062,0 -1.8275,0.40313 -2.4725,1.075c-0.645,0.67188 -1.00781,1.53188 -0.9675,2.4725c0.47031,10.965 8.04906,25.20875 13.545,34.185c3.50719,-0.36281 7.49813,-1.505 9.89,-3.44c1.8275,-1.49156 4.085,-2.2575 6.45,-2.2575c2.365,0 4.71656,0.76594 6.5575,2.2575c2.98313,2.43219 8.47906,3.5475 12.3625,3.5475c3.88344,0 9.48688,-1.12875 12.47,-3.5475c1.8275,-1.49156 4.085,-2.2575 6.45,-2.2575c2.365,0 4.71656,0.76594 6.5575,2.2575c2.98313,2.43219 8.47906,3.5475 12.3625,3.5475c3.88344,0 9.47344,-1.10187 12.47,-3.5475c1.84094,-1.49156 4.085,-2.2575 6.45,-2.2575c2.365,0 4.73,0.76594 6.5575,2.2575c2.98313,2.43219 8.47906,3.5475 12.3625,3.5475c3.88344,0 9.47344,-1.10187 12.47,-3.5475c1.84094,-1.49156 4.085,-2.2575 6.45,-2.2575c2.365,0 4.73,0.76594 6.5575,2.2575c1.8275,1.49156 4.64938,2.45906 7.4175,3.01c4.79719,-15.82937 14.0825,-31.94094 14.19,-32.1425c0.61813,-1.06156 0.61813,-2.37844 0,-3.44c-0.61812,-1.06156 -1.78719,-1.72 -3.01,-1.72zM29.885,145.555c-0.76594,0 -1.51844,0.24188 -2.15,0.7525c-4.6225,3.74906 -11.9325,5.0525 -16.77,5.0525c-1.19594,0 -2.31125,-0.13437 -3.3325,-0.215c-1.03469,-0.09406 -1.92156,-0.1075 -2.795,-0.1075c-1.89469,0 -3.44,1.53188 -3.44,3.44c0,1.90813 1.54531,3.44 3.44,3.44c0.69875,0 1.43781,0.04031 2.2575,0.1075c1.19594,0.1075 2.45906,0.215 3.87,0.215c5.53625,0 13.08813,-1.35719 18.92,-5.0525c5.83188,3.69531 13.38375,5.0525 18.92,5.0525c5.53625,0 13.08813,-1.35719 18.92,-5.0525c5.83188,3.69531 13.38375,5.0525 18.92,5.0525c5.53625,0 13.08813,-1.35719 18.92,-5.0525c5.81844,3.69531 13.38375,5.0525 18.92,5.0525c5.53625,0 13.08813,-1.35719 18.92,-5.0525c5.81844,3.69531 13.38375,5.0525 18.92,5.0525c2.83531,0 5.40188,-0.44344 7.525,-1.29c1.76031,-0.71219 2.63375,-2.75469 1.935,-4.515c-0.71219,-1.76031 -2.75469,-2.52625 -4.515,-1.8275c-1.30344,0.52406 -2.98312,0.7525 -4.945,0.7525c-4.8375,0 -12.05344,-1.30344 -16.6625,-5.0525c-1.26312,-1.03469 -3.14437,-1.03469 -4.4075,0c-4.6225,3.74906 -11.9325,5.0525 -16.77,5.0525c-4.8375,0 -12.05344,-1.30344 -16.6625,-5.0525c-1.26312,-1.03469 -3.14437,-1.03469 -4.4075,0c-4.6225,3.74906 -11.9325,5.0525 -16.77,5.0525c-4.8375,0 -12.05344,-1.30344 -16.6625,-5.0525c-1.26312,-1.03469 -3.14437,-1.03469 -4.4075,0c-4.6225,3.74906 -11.9325,5.0525 -16.77,5.0525c-4.8375,0 -12.05344,-1.30344 -16.6625,-5.0525c-0.63156,-0.51062 -1.49156,-0.7525 -2.2575,-0.7525zM29.5625,159.2075c-0.14781,0.02688 -0.29562,0.06719 -0.43,0.1075c-0.52406,0.13438 -0.99437,0.38969 -1.3975,0.7525c-4.46125,3.62813 -12.22812,5.0525 -16.77,5.0525c-2.08281,0 -3.95062,-0.3225 -6.1275,-0.3225c-1.23625,-0.01344 -2.39187,0.63156 -3.02344,1.70656c-0.61813,1.075 -0.61813,2.39187 0,3.46687c0.63156,1.075 1.78719,1.72 3.02344,1.70656c1.26313,0 3.38625,0.3225 6.1275,0.3225c5.17344,0 12.685,-1.54531 18.92,-5.59c6.24844,4.09844 13.71969,5.59 18.92,5.59c5.17344,0 12.685,-1.54531 18.92,-5.59c6.24844,4.09844 13.71969,5.59 18.92,5.59c5.17344,0 12.685,-1.54531 18.92,-5.59c6.24844,4.09844 13.71969,5.59 18.92,5.59c5.17344,0 12.685,-1.54531 18.92,-5.59c6.24844,4.09844 13.71969,5.59 18.92,5.59c2.74125,0 5.29438,-0.40312 7.525,-1.29c1.26313,-0.37625 2.19031,-1.42437 2.41875,-2.71437c0.215,-1.29 -0.30906,-2.59344 -1.37062,-3.37281c-1.06156,-0.76594 -2.4725,-0.86 -3.62813,-0.25531c-1.20937,0.48375 -2.86219,0.7525 -4.945,0.7525c-4.54187,0 -12.20125,-1.42437 -16.6625,-5.0525c-1.27656,-1.06156 -3.13094,-1.06156 -4.4075,0c-4.47469,3.62813 -12.22812,5.0525 -16.77,5.0525c-4.54187,0 -12.20125,-1.42437 -16.6625,-5.0525c-1.27656,-1.06156 -3.13094,-1.06156 -4.4075,0c-4.47469,3.62813 -12.22812,5.0525 -16.77,5.0525c-4.54187,0 -12.20125,-1.42437 -16.6625,-5.0525c-1.27656,-1.06156 -3.13094,-1.06156 -4.4075,0c-4.46125,3.62813 -12.22812,5.0525 -16.77,5.0525c-4.54187,0 -12.20125,-1.42437 -16.6625,-5.0525c-0.69875,-0.63156 -1.63937,-0.94062 -2.58,-0.86z"></path>
        </g>
    </g>
</svg>
