<svg xmlns="http://www.w3.org/2000/svg" x="0px" y="0px"
    width="100" height="100"
    viewBox="0 0 172 172">
    <g fill="none" fill-rule="nonzero" stroke="none" stroke-width="1" stroke-linecap="butt" stroke-linejoin="miter" stroke-miterlimit="10" stroke-dasharray="" stroke-dashoffset="0" font-family="none" font-weight="none" font-size="none" text-anchor="none" style="mix-blend-mode: normal">
        <g fill="#ffffff">
            <path d="M145.125,161.25h-129c-8.89025,0 -16.125,-7.23475 -16.125,-16.125v-129c0,-8.89025 7.23475,-16.125 16.125,-16.125h129c8.89025,0 16.125,7.23475 16.125,16.125v129c0,8.89025 -7.23475,16.125 -16.125,16.125zM16.125,10.75c-2.967,0 -5.375,2.408 -5.375,5.375v129c0,2.95625 2.408,5.375 5.375,5.375h129c2.95625,0 5.375,-2.41875 5.375,-5.375v-129c0,-2.967 -2.41875,-5.375 -5.375,-5.375z"></path>
            <path d="M75.25,10.75h10.75v139.75h-10.75z"></path>
            <path d="M10.75,75.25h139.75v10.75h-139.75z"></path>
            <path d="M43,26.875c-8.90559,0 -16.125,7.21941 -16.125,16.125c0,8.90559 7.21941,16.125 16.125,16.125c8.90559,0 16.125,-7.21941 16.125,-16.125c0,-8.90559 -7.21941,-16.125 -16.125,-16.125z"></path>
            <path d="M43,64.5c-11.85725,0 -21.5,-9.64275 -21.5,-21.5c0,-11.85725 9.64275,-21.5 21.5,-21.5c11.85725,0 21.5,9.64275 21.5,21.5c0,11.85725 -9.64275,21.5 -21.5,21.5zM43,32.25c-5.92325,0 -10.75,4.82675 -10.75,10.75c0,5.92325 4.82675,10.75 10.75,10.75c5.92325,0 10.75,-4.82675 10.75,-10.75c0,-5.92325 -4.82675,-10.75 -10.75,-10.75z"></path>
            <path d="M118.25,102.125c-8.90559,0 -16.125,7.21941 -16.125,16.125c0,8.90559 7.21941,16.125 16.125,16.125c8.90559,0 16.125,-7.21941 16.125,-16.125c0,-8.90559 -7.21941,-16.125 -16.125,-16.125z"></path>
            <path d="M118.25,139.75c-11.85725,0 -21.5,-9.64275 -21.5,-21.5c0,-11.85725 9.64275,-21.5 21.5,-21.5c11.85725,0 21.5,9.64275 21.5,21.5c0,11.85725 -9.64275,21.5 -21.5,21.5zM118.25,107.5c-5.934,0 -10.75,4.816 -10.75,10.75c0,5.934 4.816,10.75 10.75,10.75c5.934,0 10.75,-4.816 10.75,-10.75c0,-5.934 -4.816,-10.75 -10.75,-10.75z"></path>
        </g>
    </g>
</svg>
