<svg xmlns="http://www.w3.org/2000/svg" x="0px" y="0px"
    width="100" height="100"
    viewBox="0 0 172 172"
    style=" fill:#000000;">
    <g fill="none" fill-rule="nonzero" stroke="none" stroke-width="1" stroke-linecap="butt" stroke-linejoin="miter" stroke-miterlimit="10" stroke-dasharray="" stroke-dashoffset="0" font-family="none" font-weight="none" font-size="none" text-anchor="none" style="mix-blend-mode: normal">
        <path d="M0,172v-172h172v172z" fill="none"></path>
        <g fill="#ffffff">
            <path d="M20.64,13.76c-3.784,0 -6.88,3.096 -6.88,6.88v130.72c0,3.784 3.096,6.88 6.88,6.88h79.49625c0.86,-4.2312 3.26692,-7.8432 6.63812,-10.32h-79.25437c-1.892,0 -3.44,-1.548 -3.44,-3.44v-116.96c0,-1.892 1.548,-3.44 3.44,-3.44h116.96c1.892,0 3.44,1.548 3.44,3.44v44.72h10.32v-51.6c0,-3.784 -3.096,-6.88 -6.88,-6.88zM58.48,30.96v27.52h27.52v-27.52zM86,58.48v27.52h14.6536l-1.3975,-9.83625c-0.07396,-0.51772 -0.02752,-1.0198 0.11422,-1.48485c0.14174,-0.46504 0.37877,-0.88849 0.69203,-1.24969c0.31325,-0.3612 0.7016,-0.66053 1.14219,-0.86672c0.44059,-0.20619 0.93423,-0.3225 1.45797,-0.3225h10.8575v-13.76zM113.52,58.48h27.52v-27.52h-27.52zM86,86h-27.52v27.52h27.52zM86,113.52v27.52h27.17735h0.34265v-1.06828v-13.14187c-0.7439,-0.1892 -1.46099,-0.43403 -2.15,-0.73906c-0.68901,-0.30503 -1.35208,-0.66543 -1.97531,-1.075c-0.62323,-0.40958 -1.20702,-0.8678 -1.75359,-1.37063c-0.54657,-0.50283 -1.0527,-1.05457 -1.51172,-1.63937c-0.45902,-0.5848 -0.87565,-1.20561 -1.23625,-1.8611c-0.3606,-0.65548 -0.66919,-1.34106 -0.92047,-2.05594c-0.25128,-0.71488 -0.44001,-1.46092 -0.57109,-2.2239c-0.13108,-0.76298 -0.20156,-1.54505 -0.20156,-2.34485zM58.48,113.52h-27.52v27.52h27.52zM58.48,86v-27.52h-27.52v27.52zM110.61078,79.12c-2.09496,0 -3.70568,1.85615 -3.40641,3.93047l2.39188,16.70953h56.0075l2.39188,-16.70953c0.29928,-2.07432 -1.31145,-3.93047 -3.40641,-3.93047h-9.78922l-1.41094,10.2864l-8.90906,0.0336v-10.32h-13.76v10.32l-8.90906,0.0336l-1.41094,-10.3536zM110.08,106.64v6.88c0,3.8012 3.0788,6.88 6.88,6.88h41.28c3.8012,0 6.88,-3.0788 6.88,-6.88v-6.88zM124.97547,127.28l-5.71094,17.2h36.67094l-5.71094,-17.2zM116.96,151.36c-5.70008,0 -10.32,4.61992 -10.32,10.32v10.32h61.92v-10.32c0,-5.70008 -4.61992,-10.32 -10.32,-10.32z"></path>
        </g>
    </g>
</svg>
