<svg height="512pt" viewBox="0 -17 512.00003 512" width="512pt" xmlns="http://www.w3.org/2000/svg" fill="#fff">
    <path d="m299.445312 278.292969c22.332032 0 40.5-18.167969 40.5-40.5 0-22.328125-18.167968-40.496094-40.5-40.496094-22.332031 0-40.5 18.167969-40.5 40.496094 0 22.332031 18.167969 40.5 40.5 40.5zm0-66.027344c14.078126 0 25.527344 11.453125 25.527344 25.53125 0 14.074219-11.449218 25.527344-25.527344 25.527344-14.078124 0-25.527343-11.453125-25.527343-25.527344 0-14.078125 11.449219-25.53125 25.527343-25.53125zm0 0"/>
    <path d="m121.371094 191.136719c22.332031 0 40.5-18.167969 40.5-40.496094 0-22.332031-18.167969-40.5-40.5-40.5-22.332032 0-40.5 18.167969-40.5 40.5 0 22.328125 18.167968 40.496094 40.5 40.496094zm0-66.027344c14.078125 0 25.527344 11.453125 25.527344 25.53125 0 14.074219-11.449219 25.527344-25.527344 25.527344s-25.527344-11.453125-25.527344-25.527344c0-14.078125 11.449219-25.53125 25.527344-25.53125zm0 0"/>
    <path d="m387.835938 191.136719c22.332031 0 40.5-18.167969 40.5-40.496094 0-22.332031-18.167969-40.5-40.5-40.5-22.332032 0-40.5 18.167969-40.5 40.5 0 22.328125 18.167968 40.496094 40.5 40.496094zm0-66.027344c14.074218 0 25.527343 11.453125 25.527343 25.53125 0 14.074219-11.453125 25.527344-25.527343 25.527344-14.078126 0-25.53125-11.453125-25.53125-25.527344.003906-14.078125 11.453124-25.53125 25.53125-25.53125zm0 0"/>
    <path d="m100.585938 451.78125-26.382813-29.929688c-.082031-.09375-.125-.210937-.125-.332031v-25.027343h335.148437c4.136719 0 7.488282-3.351563 7.488282-7.484376 0-4.136718-3.351563-7.488281-7.488282-7.488281h-335.148437v-301.019531c0-8.53125-6.9375-15.46875-15.46875-15.46875h-12.742187c-8.527344 0-15.46875 6.9375-15.46875 15.46875v341.019531c0 .121094-.042969.238281-.125.332031l-26.378907 29.929688c-4.074219 4.621094-5.03125 10.976562-2.496093 16.59375 2.535156 5.613281 7.9375 9.101562 14.097656 9.101562h73.480468c6.160157 0 11.566407-3.488281 14.097657-9.101562 2.539062-5.613281 1.582031-11.972656-2.488281-16.59375zm-11.152344 10.433594c-.132813.292968-.296875.292968-.453125.292968h-73.484375c-.15625 0-.320313 0-.453125-.292968-.132813-.292969-.023438-.417969.078125-.535156l26.382812-29.929688c2.492188-2.828125 3.863282-6.460938 3.863282-10.230469v-341.019531c0-.277344.226562-.5.5-.5h12.742187c.273437 0 .496094.222656.496094.5v341.019531c0 3.769531 1.375 7.402344 3.867187 10.226563l26.378906 29.933594c.105469.117187.214844.242187.082032.535156zm0 0"/>
    <path d="m508.105469 451.78125-26.378907-29.929688c-.082031-.09375-.125-.210937-.125-.332031v-341.019531c0-8.53125-6.941406-15.46875-15.46875-15.46875h-12.742187c-8.53125 0-15.46875 6.9375-15.46875 15.46875v3.460938h-100.375c-5.925781-15.027344-20.578125-25.695313-37.6875-25.695313s-31.761719 10.667969-37.6875 25.695313h-160.203125c-4.132812 0-7.484375 3.351562-7.484375 7.484374 0 4.136719 3.351563 7.488282 7.484375 7.488282h157.394531c.039063 9.671875 3.488281 18.554687 9.203125 25.507812-6.175781 7.246094-9.621094 16.441406-9.621094 26.199219 0 22.332031 18.167969 40.5 40.5 40.5 20.851563 0 38.171876-15.625 40.289063-36.347656.417969-4.109375-2.574219-7.785157-6.6875-8.203125-4.109375-.414063-7.785156 2.570312-8.207031 6.683594-1.332032 13.054687-12.25 22.894531-25.394532 22.894531-14.078124 0-25.527343-11.453125-25.527343-25.527344 0-6.179687 2.191406-12 6.117187-16.582031 5.867188 3.308594 12.625 5.203125 19.824219 5.203125 22.273437 0 40.402344-18.074219 40.492187-40.328125h97.570313v322.589844c0 .121093-.042969.238281-.125.328124l-26.378906 29.929688c-4.074219 4.621094-5.03125 10.980469-2.496094 16.59375 2.535156 5.617188 7.9375 9.105469 14.097656 9.105469h73.484375c6.160156 0 11.5625-3.488281 14.097656-9.105469 2.535157-5.613281 1.578126-11.972656-2.496093-16.59375zm-208.246094-327.492188c-14.078125 0-25.53125-11.449218-25.53125-25.527343 0-14.074219 11.453125-25.527344 25.53125-25.527344s25.527344 11.453125 25.527344 25.527344c0 14.078125-11.449219 25.527343-25.527344 25.527343zm197.097656 337.925782c-.132812.292968-.296875.292968-.453125.292968h-73.484375c-.15625 0-.320312 0-.453125-.292968-.132812-.292969-.023437-.417969.082032-.535156l26.378906-29.929688c2.492187-2.828125 3.863281-6.460938 3.863281-10.230469v-341.019531c0-.277344.226563-.5.5-.5h12.742187c.273438 0 .5.222656.5.5v341.019531c0 3.769531 1.371094 7.402344 3.863282 10.226563l26.378906 29.933594c.105469.117187.214844.242187.082031.535156zm0 0"/>
    <path d="m121.371094 278.292969c22.332031 0 40.5-18.167969 40.5-40.5 0-22.328125-18.167969-40.496094-40.5-40.496094-22.332032 0-40.5 18.167969-40.5 40.496094 0 22.332031 18.167968 40.5 40.5 40.5zm0-66.027344c14.078125 0 25.527344 11.453125 25.527344 25.53125 0 14.074219-11.449219 25.527344-25.527344 25.527344s-25.527344-11.453125-25.527344-25.527344c0-14.078125 11.449219-25.53125 25.527344-25.53125zm0 0"/>
    <path d="m121.371094 365.449219c22.332031 0 40.5-18.167969 40.5-40.5 0-22.328125-18.167969-40.496094-40.5-40.496094-22.332032 0-40.5 18.167969-40.5 40.496094 0 22.332031 18.167968 40.5 40.5 40.5zm0-66.027344c14.078125 0 25.527344 11.453125 25.527344 25.53125 0 14.074219-11.449219 25.527344-25.527344 25.527344s-25.527344-11.453125-25.527344-25.527344c0-14.078125 11.449219-25.53125 25.527344-25.53125zm0 0"/>
    <path d="m209.761719 191.136719c22.332031 0 40.5-18.167969 40.5-40.496094 0-22.332031-18.167969-40.5-40.5-40.5s-40.5 18.167969-40.5 40.5c0 22.328125 18.167969 40.496094 40.5 40.496094zm0-66.027344c14.078125 0 25.527343 11.453125 25.527343 25.53125 0 14.074219-11.449218 25.527344-25.527343 25.527344s-25.53125-11.453125-25.53125-25.527344c0-14.078125 11.453125-25.53125 25.53125-25.53125zm0 0"/>
    <path d="m209.761719 278.292969c22.332031 0 40.5-18.167969 40.5-40.5 0-22.328125-18.167969-40.496094-40.5-40.496094s-40.5 18.167969-40.5 40.496094c0 22.332031 18.167969 40.5 40.5 40.5zm0-66.027344c14.078125 0 25.527343 11.453125 25.527343 25.53125 0 14.074219-11.449218 25.527344-25.527343 25.527344s-25.53125-11.453125-25.53125-25.527344c0-14.078125 11.453125-25.53125 25.53125-25.53125zm0 0"/>
    <path d="m209.761719 365.449219c22.332031 0 40.5-18.167969 40.5-40.5 0-22.328125-18.167969-40.496094-40.5-40.496094s-40.5 18.167969-40.5 40.496094c0 22.332031 18.167969 40.5 40.5 40.5zm0-66.027344c14.078125 0 25.527343 11.453125 25.527343 25.53125 0 14.074219-11.449218 25.527344-25.527343 25.527344s-25.53125-11.453125-25.53125-25.527344c0-14.078125 11.453125-25.53125 25.53125-25.53125zm0 0"/>
    <path d="m299.445312 365.449219c22.332032 0 40.5-18.167969 40.5-40.5 0-22.328125-18.167968-40.496094-40.5-40.496094-22.332031 0-40.5 18.167969-40.5 40.496094 0 22.332031 18.167969 40.5 40.5 40.5zm0-66.027344c14.078126 0 25.527344 11.453125 25.527344 25.53125 0 14.074219-11.449218 25.527344-25.527344 25.527344-14.078124 0-25.527343-11.453125-25.527343-25.527344 0-14.078125 11.449219-25.53125 25.527343-25.53125zm0 0"/>
    <path d="m387.835938 365.449219c22.332031 0 40.5-18.167969 40.5-40.5 0-22.328125-18.167969-40.496094-40.5-40.496094-22.332032 0-40.5 18.167969-40.5 40.496094 0 22.332031 18.167968 40.5 40.5 40.5zm0-66.027344c14.074218 0 25.527343 11.453125 25.527343 25.53125 0 14.074219-11.453125 25.527344-25.527343 25.527344-14.078126 0-25.53125-11.453125-25.53125-25.527344.003906-14.078125 11.453124-25.53125 25.53125-25.53125zm0 0"/>
    <path d="m387.835938 278.292969c22.332031 0 40.5-18.167969 40.5-40.5 0-22.328125-18.167969-40.496094-40.5-40.496094-22.332032 0-40.5 18.167969-40.5 40.496094 0 22.332031 18.167968 40.5 40.5 40.5zm0-66.027344c14.074218 0 25.527343 11.453125 25.527343 25.53125 0 14.074219-11.453125 25.527344-25.527343 25.527344-14.078126 0-25.53125-11.453125-25.53125-25.527344 0-14.078125 11.453124-25.53125 25.53125-25.53125zm0 0"/>
    <path d="m388.25 80.996094c22.328125 0 40.496094-18.167969 40.496094-40.496094 0-22.332031-18.167969-40.5-40.496094-40.5-22.332031 0-40.5 18.167969-40.5 40.5 0 22.328125 18.167969 40.496094 40.5 40.496094zm0-66.023438c14.074219 0 25.527344 11.453125 25.527344 25.527344s-11.453125 25.527344-25.527344 25.527344c-14.078125 0-25.53125-11.453125-25.53125-25.527344s11.453125-25.527344 25.53125-25.527344zm0 0"/>
</svg>
