<svg version="1.1" id="_x31_0"
	xmlns="http://www.w3.org/2000/svg"
	xmlns:xlink="http://www.w3.org/1999/xlink"
	x="0px" y="0px"
	width="150" height="150"
	viewBox="0 0 512 512"
	xml:space="preserve">
	<g fill="#ffffff">
		<path class="st0" d="M123.27,276.558c-36.715,0-66.473,29.758-66.473,66.477c0,36.715,29.758,66.473,66.473,66.473
			c36.558,0,66.477-29.758,66.477-66.473C189.746,306.317,159.828,276.558,123.27,276.558z M121.191,299.039l1.039,2.156
			c0.481,1.282,1.762,5.199-16.957,23.84c-15.122,15.118-20.481,17.199-22.719,17.199c-0.48,0-0.878-0.16-1.121-0.242l-1.758-0.558
			l-0.641-2.398l-0.078-2.878c0-20.641,16.797-37.438,37.438-37.438L121.191,299.039z"></path>
		<path class="st0" d="M123.27,102.492c-36.715,0-66.473,29.918-66.473,66.555c0,6.867,1.047,13.504,2.988,19.746
			c3.238,10.406,8.962,19.734,16.481,27.27c1.504,1.508,3.078,2.946,4.718,4.301c3.286,2.719,6.833,5.129,10.598,7.18
			c9.422,5.137,20.214,8.058,31.687,8.058c11.426,0,22.203-2.922,31.617-8.058c3.77-2.051,7.317-4.461,10.606-7.18
			c1.645-1.355,3.219-2.793,4.726-4.301c7.532-7.535,13.278-16.863,16.528-27.27c1.949-6.242,3-12.878,3-19.746
			C189.746,132.41,159.828,102.492,123.27,102.492z M78.957,169.047c0-24.477,19.758-44.317,44.313-44.317
			c24.402,0,44.238,19.84,44.238,44.317c0,24.398-19.836,44.316-44.238,44.316C98.715,213.363,78.957,193.446,78.957,169.047z"></path>
		<path class="st0" d="M511.004,373.031c-2.16-8.961-8-16.476-15.918-21.117l-29.598-16.801c-0.882-0.558-1.602-1.438-1.679-2.481
			l-8.562-78.074c-1.52-13.598-8.958-25.598-20.555-32.957l-44.878-27.836V87.614h30.637V76.492h-30.637V45.774h-11.039v30.718
			h-162.95V45.774h-11.039v30.718H41.758V46.027v-0.09l0,0v-0.164H30.637v30.718H0v10.926v0.035l0,0v0.16h30.637v162.867H0v10.926
			v0.031l0,0v0.164h30.637v163.027H0v10.844v0.035l0,0l0,0l0,0v0.16h30.637v30.555h10.894l0.066,0.003v-0.003h0.16v-30.555h163.027
			v30.555h10.813l0.066,0.003v-0.003h0.16v-30.555h162.95v30.555h11.039v-30.555h23.277l25.84,13.438
			c4.719,2.402,9.918,3.68,15.359,3.68c11.516,0,22.078-5.84,28.157-15.438l24.398-38.317c1.199-1.922,2.199-3.953,2.988-6.054
			C512.203,386.664,512.684,379.692,511.004,373.031z M463.886,425.508c-1.038,1.718-2.48,3.058-4.14,3.969s-3.539,1.39-5.458,1.39
			c-1.762,0-3.679-0.48-5.281-1.359l-59.195-30.718l-11.039-5.68l-11.918-6.16c-4.801-2.558-9.042-5.84-12.48-9.918
			c-4.801-5.438-8.16-12.238-9.52-19.598l-3.359-17.039c-0.16-4.082-0.961-8-2.242-11.762l-6.636-33.675
			c-0.402-2.399,0.48-4.962,2.32-6.559c0.481-0.48,0.957-0.801,1.519-1.121c2.641-1.442,5.438-2.078,8.161-2.078
			c7.758,0,15.038,5.118,17.355,13.118l8,29.117c1.203,4.16,4.801,6.723,8.801,6.723c1.359,0,2.961-0.321,4.402-1.122l3.035-1.762
			c1.523-0.879,2.882-2.078,3.602-3.598c0.878-1.519,1.359-3.282,1.121-5.199l-1.121-12.082l-3.602-39.914
			c-0.637-6.801-4.317-12.961-9.996-16.801l-4.801-3.199l-38.797-25.199l-17.84-11.758c-6.961-4.641-9.438-13.602-6.078-21.278
			c2.879-6.481,9.118-10.242,15.68-10.242c3.117,0,6.316,0.883,9.117,2.722l23.039,14.317l22.238,13.68l11.039,6.961l33.199,20.476
			c5.758,3.762,9.598,9.922,10.398,16.801l8.558,78.074c0.879,8,5.598,15.118,12.641,19.199l29.598,16.797
			c0.484,0.278,0.902,0.622,1.332,0.954c0.39,0.305,0.762,0.621,1.11,0.969c0.754,0.754,1.386,1.59,1.894,2.496
			c0.25,0.449,0.477,0.91,0.668,1.394c1.309,3.305,1.129,7.156-0.926,10.426L463.886,425.508z M378.773,152.875l-0.082,34.039
			l-15.438-9.629c0.321-2.719,0.559-5.52,0.559-8.238c0-36.637-29.836-66.555-66.555-66.555c-36.637,0-66.473,29.918-66.473,66.555
			c0,6.867,1.047,13.504,2.993,19.746c3.246,10.406,8.98,19.734,16.504,27.27c1.507,1.508,3.082,2.946,4.726,4.301
			c3.285,2.719,6.832,5.129,10.598,7.18c9.418,5.137,20.203,8.058,31.652,8.058c3.442,0,6.719-0.242,9.922-0.801l13.117,8.57
			l10.641,7.11H229.664c-7.679,0-13.84-6.238-13.84-13.84V87.614h162.95V152.875z M327.578,375.43
			c-8,7.442-18.559,11.922-30.321,11.922c-24.316,0-44.316-19.84-44.316-44.317c0-24.398,20-44.316,44.316-44.316
			c4.961,0,9.84,0.878,14.161,2.398l11.762,60.476C324.058,366.391,325.578,371.031,327.578,375.43z M279.262,151.047
			c-15.121,15.121-20.48,17.199-22.718,17.199c-0.481,0-0.879-0.16-1.122-0.238l-1.758-0.562l-0.641-2.398l-0.082-2.879
			c0-20.641,16.801-37.438,37.438-37.438l4.801,0.321l1.038,2.16C296.621,128.489,297.981,132.41,279.262,151.047z M215.824,275.438
			c0-7.679,6.161-13.836,13.84-13.836h118.551l1.847,1.215l1.402,1.074c-2.238-0.442-4.539-0.692-6.847-0.692
			c-6.242,0-12.563,1.602-18.161,4.398c-5.038,2.641-9.038,6.641-11.839,11.199c-5.438-1.519-11.278-2.32-17.36-2.32
			c-36.637,0-66.473,29.918-66.473,66.558c0,36.637,29.836,66.555,66.473,66.555c16.321,0,31.199-5.84,42.719-15.602
			c4.878,4.882,10.48,9.199,16.801,12.48l21.996,11.438v6.722h-162.95V275.438z M204.785,275.438v149.191H41.758V261.602H190.95
			C198.465,261.602,204.785,267.758,204.785,275.438z M190.95,250.481H41.758V87.614h163.027v149.027
			C204.785,244.242,198.465,250.481,190.95,250.481z"></path>
	</g>
</svg>
