<svg xmlns="http://www.w3.org/2000/svg" x="0px" y="0px"
    width="100" height="100"
    fill-rule="evenodd"
    viewBox="0 0 150.504 150.504">
    <g fill="#fff">
        <path id="_68839200" d="m126.69 102.99c13.073 0 23.676 10.602 23.676 23.676 0 13.073-10.602 23.676-23.676 23.676-13.073 0-23.676-10.602-23.676-23.676v-3.38l-18.63-0.019303 0.0048436-27.07 11.764-0.0061257-20.902-20.95-20.969 20.95h11.855l0.000071229 47.372 18.251-0.00064106-0.044447-27.014 20.939-0.0051285c3.7958-8.0103 11.956-13.552 21.407-13.552zm0 5.9171c9.8061 0 17.758 7.9524 17.758 17.758 0 9.8061-7.9524 17.758-17.758 17.758-9.8061 0-17.758-7.9524-17.758-17.758 0-9.8061 7.9524-17.758 17.758-17.758z"/>
        <path d="m102.99 23.813c0-13.073 10.602-23.676 23.676-23.676 13.073 0 23.676 10.602 23.676 23.676 0 13.073-10.602 23.676-23.676 23.676h-3.38l-0.019303 18.63-27.07-0.0048436-0.0061257-11.764-20.95 20.902 20.95 20.969v-11.855l47.372-0.000071229-0.00064106-18.251-27.014 0.044447-0.0051285-20.939c-8.0103-3.7958-13.552-11.956-13.552-21.407zm5.9171 0c0-9.8061 7.9524-17.758 17.758-17.758 9.8061 0 17.758 7.9524 17.758 17.758 0 9.8061-7.9524 17.758-17.758 17.758-9.8061 0-17.758-7.9524-17.758-17.758z"/>
        <path d="m23.813 47.518c-13.073 0-23.676-10.602-23.676-23.676 0-13.073 10.602-23.676 23.676-23.676 13.073 0 23.676 10.602 23.676 23.676v3.38l18.63 0.019303-0.0048436 27.07-11.764 0.0061257 20.902 20.95 20.969-20.95h-11.855l-0.000071229-47.372-18.251 0.00064106 0.044447 27.014-20.939 0.0051285c-3.7958 8.0103-11.956 13.552-21.407 13.552zm0-5.9171c-9.8061 0-17.758-7.9524-17.758-17.758 0-9.8061 7.9524-17.758 17.758-17.758 9.8061 0 17.758 7.9524 17.758 17.758 0 9.8061-7.9524 17.758-17.758 17.758z"/>
        <path d="m47.518 126.69c0 13.073-10.602 23.676-23.676 23.676-13.073 0-23.676-10.602-23.676-23.676 0-13.073 10.602-23.676 23.676-23.676h3.38l0.019303-18.63 27.07 0.0048436 0.0061257 11.764 20.95-20.902-20.95-20.969v11.855l-47.372 0.000071229 0.00064106 18.251 27.014-0.044447 0.0051285 20.939c8.0103 3.7958 13.552 11.956 13.552 21.407zm-5.9171 0c0 9.8061-7.9524 17.758-17.758 17.758-9.8061 0-17.758-7.9524-17.758-17.758 0-9.8061 7.9524-17.758 17.758-17.758 9.8061 0 17.758 7.9524 17.758 17.758z"/>
    </g>
</svg>
