<svg xmlns="http://www.w3.org/2000/svg" x="0px" y="0px"
    width="100" height="100"
    viewBox="0 0 172 172"
    style="fill:#000000;">
    <g fill="none" fill-rule="nonzero"
        stroke="none" stroke-width="1" stroke-linecap="butt" stroke-linejoin="miter"
        stroke-miterlimit="10" stroke-dasharray="" stroke-dashoffset="0"
        font-family="none" font-weight="none" font-size="none"
        text-anchor="none" style="mix-blend-mode: normal">
        <path d="M0,172v-172h172v172z" fill="none"></path>
        <g fill="#ffffff">
            <path d="M62.35,163.4c-1.29,0 -2.15,-0.86 -2.15,-2.15v-150.5c0,-1.29 0.86,-2.15 2.15,-2.15c1.29,0 2.15,0.86 2.15,2.15v150.5c0,1.29 -0.86,2.15 -2.15,2.15z"></path>
            <path d="M109.65,163.4c-1.29,0 -2.15,-0.86 -2.15,-2.15v-150.5c0,-1.29 0.86,-2.15 2.15,-2.15c1.29,0 2.15,0.86 2.15,2.15v150.5c0,1.29 -0.86,2.15 -2.15,2.15z"></path>
            <path d="M161.25,111.8h-150.5c-1.29,0 -2.15,-0.86 -2.15,-2.15c0,-1.29 0.86,-2.15 2.15,-2.15h150.5c1.29,0 2.15,0.86 2.15,2.15c0,1.29 -0.86,2.15 -2.15,2.15z"></path>
            <path d="M161.25,64.5h-150.5c-1.29,0 -2.15,-0.86 -2.15,-2.15c0,-1.29 0.86,-2.15 2.15,-2.15h150.5c1.29,0 2.15,0.86 2.15,2.15c0,1.29 -0.86,2.15 -2.15,2.15z"></path>
            <path d="M74.39,99.76c-0.43,0 -1.29,0 -1.72,-0.43c-0.86,-0.86 -0.86,-2.15 0,-3.01l22.79,-22.79c0.86,-0.86 2.15,-0.86 3.01,0c0.86,0.86 0.86,2.15 0,3.01l-22.36,22.36c-0.43,0.43 -0.86,0.86 -1.72,0.86z"></path>
            <path d="M97.61,99.76c-0.43,0 -1.29,0 -1.72,-0.43l-22.79,-23.22c-0.86,-0.86 -0.86,-2.15 0,-3.01c0.86,-0.86 2.15,-0.86 3.01,0l22.79,22.79c0.86,0.86 0.86,2.15 0,3.01c-0.43,0.43 -0.86,0.86 -1.29,0.86z"></path>
            <path d="M125.99,151.36c-0.43,0 -1.29,0 -1.72,-0.43c-0.86,-0.86 -0.86,-2.15 0,-3.01l22.79,-22.79c0.86,-0.86 2.15,-0.86 3.01,0c0.86,0.86 0.86,2.15 0,3.01l-22.36,22.36c-0.43,0.43 -0.86,0.86 -1.72,0.86z"></path>
            <path d="M149.21,151.36c-0.43,0 -1.29,0 -1.72,-0.43l-22.79,-23.22c-0.86,-0.86 -0.86,-2.15 0,-3.01c0.86,-0.86 2.15,-0.86 3.01,0l22.79,22.79c0.86,0.86 0.86,2.15 0,3.01c-0.43,0.43 -0.86,0.86 -1.29,0.86z"></path>
            <path d="M22.79,48.16c-0.43,0 -1.29,0 -1.72,-0.43c-0.86,-0.86 -0.86,-2.15 0,-3.01l23.22,-23.22c0.86,-0.86 2.15,-0.86 3.01,0c0.86,0.86 0.86,2.15 0,3.01l-22.79,22.79c-0.43,0.43 -0.86,0.86 -1.72,0.86z"></path>
            <path d="M46.01,48.16c-0.43,0 -1.29,0 -1.72,-0.43l-22.79,-23.22c-0.86,-0.86 -0.86,-2.15 0,-3.01c0.86,-0.86 2.15,-0.86 3.01,0l22.79,22.79c0.86,0.86 0.86,2.15 0,3.01c-0.43,0.43 -0.86,0.86 -1.29,0.86z"></path>
            <path d="M34.4,98.9c-7.31,0 -12.9,-5.59 -12.9,-12.9c0,-7.31 5.59,-12.9 12.9,-12.9c7.31,0 12.9,5.59 12.9,12.9c0,7.31 -5.59,12.9 -12.9,12.9zM34.4,77.4c-4.73,0 -8.6,3.87 -8.6,8.6c0,4.73 3.87,8.6 8.6,8.6c4.73,0 8.6,-3.87 8.6,-8.6c0,-4.73 -3.87,-8.6 -8.6,-8.6z"></path>
            <path d="M34.4,150.5c-7.31,0 -12.9,-5.59 -12.9,-12.9c0,-7.31 5.59,-12.9 12.9,-12.9c7.31,0 12.9,5.59 12.9,12.9c0,7.31 -5.59,12.9 -12.9,12.9zM34.4,129c-4.73,0 -8.6,3.87 -8.6,8.6c0,4.73 3.87,8.6 8.6,8.6c4.73,0 8.6,-3.87 8.6,-8.6c0,-4.73 -3.87,-8.6 -8.6,-8.6z"></path>
            <path d="M137.6,47.3c-7.31,0 -12.9,-5.59 -12.9,-12.9c0,-7.31 5.59,-12.9 12.9,-12.9c7.31,0 12.9,5.59 12.9,12.9c0,7.31 -5.59,12.9 -12.9,12.9zM137.6,25.8c-4.73,0 -8.6,3.87 -8.6,8.6c0,4.73 3.87,8.6 8.6,8.6c4.73,0 8.6,-3.87 8.6,-8.6c0,-4.73 -3.87,-8.6 -8.6,-8.6z"></path>
        </g>
    </g>
</svg>
