<svg xmlns="http://www.w3.org/2000/svg" x="0px" y="0px"
    width="100" height="100"
    viewBox="0 0 172 172"
    style=" fill:#000000;">
    <g fill="none" fill-rule="nonzero" stroke="none" stroke-width="1" stroke-linecap="butt" stroke-linejoin="miter" stroke-miterlimit="10" stroke-dasharray="" stroke-dashoffset="0" font-family="none" font-weight="none" font-size="none" text-anchor="none" style="mix-blend-mode: normal">
        <path d="M0,172v-172h172v172z" fill="none"></path>
        <g fill="#ffffff">
            <path d="M86,17.1888c-2.14427,0 -4.28003,0.41217 -6.32683,1.22057l-48.28541,18.99167c-3.4744,1.36453 -3.54078,6.2591 -0.10078,7.71536l51.33125,21.75755c1.0836,0.45867 2.22937,0.68308 3.38177,0.68308c1.1524,0 2.30391,-0.22441 3.38177,-0.68308l51.33125,-21.75755c3.44,-1.45627 3.37362,-6.35083 -0.10078,-7.71536l-48.28542,-18.99167c-2.0468,-0.8084 -4.18256,-1.22057 -6.32683,-1.22057zM86,34.4c6.33533,0 11.46667,2.56853 11.46667,5.73333c0,3.1648 -5.13133,5.73333 -11.46667,5.73333c-6.33533,0 -11.46667,-2.56853 -11.46667,-5.73333c0,-3.1648 5.13133,-5.73333 11.46667,-5.73333zM22.27266,54.52266c-2.74125,0.29348 -5.07266,2.59935 -5.07266,5.64375v57.60208c0,6.58187 3.67462,12.49007 9.57422,15.40833c0,0 26.54641,13.0668 42.23854,20.76093c5.20587,2.55133 11.25391,-1.25282 11.25391,-7.04349v-60.59193c0,-4.8332 -2.88557,-9.19967 -7.33464,-11.08593l-47.85989,-20.26823c-0.93453,-0.3956 -1.88573,-0.52335 -2.79948,-0.42552zM149.72734,54.52266c-0.91375,-0.09783 -1.86494,0.02992 -2.79948,0.42552l-47.85989,20.26823c-4.44907,1.88627 -7.33464,6.25273 -7.33464,11.08593v60.59193c0,5.7964 6.04804,9.60028 11.25391,7.05468c15.69213,-7.69413 42.23854,-20.76093 42.23854,-20.76093c5.8996,-2.924 9.57422,-8.83766 9.57422,-15.41953v-57.60208c0,-3.0444 -2.33141,-5.35028 -5.07266,-5.64375zM33.24661,70.44609c0.37312,0.00295 0.75779,0.06566 1.15339,0.19036c3.1648,0.99187 5.73333,5.64994 5.73333,10.40287c0,4.75293 -2.56853,7.79473 -5.73333,6.79713c-3.1648,-0.99187 -5.73333,-5.64993 -5.73333,-10.40286c0,-4.15882 1.96815,-7.00811 4.57995,-6.9875zM138.75339,72.50651c2.6118,-0.0196 4.57995,2.8337 4.57995,6.9875c0,4.7472 -2.56853,9.411 -5.73333,10.40287c-3.1648,0.99187 -5.73333,-2.04994 -5.73333,-6.79714c0,-4.7472 2.56853,-9.40527 5.73333,-10.40286c0.3956,-0.12471 0.78027,-0.18757 1.15339,-0.19037zM115.82005,81.91276c2.6118,-0.0196 4.57995,2.8337 4.57995,6.9875c0,4.7472 -2.56853,9.411 -5.73333,10.40286c-3.1648,0.99187 -5.73333,-2.04993 -5.73333,-6.79713c0,-4.7472 2.56853,-9.40527 5.73333,-10.40287c0.3956,-0.1247 0.78027,-0.18756 1.15339,-0.19036zM138.75339,104.84609c2.6118,-0.0196 4.57995,2.8337 4.57995,6.9875c0,4.7472 -2.56853,9.411 -5.73333,10.40286c-3.1648,0.99187 -5.73333,-2.04993 -5.73333,-6.79713c0,-4.7472 2.56853,-9.40527 5.73333,-10.40287c0.3956,-0.1247 0.78027,-0.18756 1.15339,-0.19036zM56.17995,116.31276c0.37311,0.00295 0.75779,0.06566 1.15339,0.19036c3.1648,0.99187 5.73333,5.64994 5.73333,10.40287c0,4.75293 -2.56853,7.79473 -5.73333,6.79713c-3.1648,-0.99186 -5.73333,-5.64993 -5.73333,-10.40286c0,-4.15882 1.96815,-7.00811 4.57995,-6.9875zM115.82005,116.31276c2.6118,-0.0196 4.57995,2.8337 4.57995,6.9875c0,4.7472 -2.56853,9.411 -5.73333,10.40286c-3.1648,0.99187 -5.73333,-2.04993 -5.73333,-6.79713c0,-4.7472 2.56853,-9.40526 5.73333,-10.40287c0.3956,-0.1247 0.78027,-0.18756 1.15339,-0.19036z"></path>
        </g>
    </g>
</svg>
